<svg width="581" height="122" viewBox="0 0 581 122" fill="none" xmlns="http://www.w3.org/2000/svg">
<path d="M17.808 49H3.504V13.528H17.952C23.456 13.528 27.776 15.112 30.912 18.28C34.048 21.48 35.616 25.816 35.616 31.288C35.616 36.76 34.032 41.08 30.864 44.248C27.76 47.416 23.408 49 17.808 49ZM12.48 22.12V40.408H18.24C20.832 40.408 22.816 39.528 24.192 37.768C25.6 35.976 26.304 33.8 26.304 31.24C26.304 28.712 25.6 26.552 24.192 24.76C22.816 23 20.832 22.12 18.24 22.12H12.48ZM44.3696 20.152C42.9616 20.152 41.7936 19.688 40.8656 18.76C39.9376 17.832 39.4736 16.664 39.4736 15.256C39.4736 13.88 39.9376 12.744 40.8656 11.848C41.8256 10.92 42.9936 10.456 44.3696 10.456C45.7456 10.456 46.8976 10.92 47.8256 11.848C48.7536 12.744 49.2176 13.88 49.2176 15.256C49.2176 16.664 48.7536 17.832 47.8256 18.76C46.8976 19.688 45.7456 20.152 44.3696 20.152ZM48.6416 22.504V49H40.1456V22.504H48.6416ZM73.5098 24.712V22.504H81.1418V46.456C81.1418 50.648 79.7178 53.992 76.8698 56.488C74.0218 58.984 70.4218 60.232 66.0698 60.232C61.3338 60.232 57.1578 58.904 53.5418 56.248L56.6138 50.056C59.6858 52.072 62.7258 53.08 65.7338 53.08C68.0378 53.08 69.8298 52.504 71.1098 51.352C72.4218 50.232 73.0778 48.776 73.0778 46.984V46.408C71.2218 48.168 68.7578 49.048 65.6858 49.048C61.7498 49.048 58.5818 47.784 56.1818 45.256C53.7818 42.696 52.5818 39.448 52.5818 35.512C52.5818 31.48 53.8618 28.184 56.4218 25.624C58.9498 23.096 62.1658 21.832 66.0698 21.832C69.0138 21.832 71.4938 22.792 73.5098 24.712ZM73.1258 35.608C73.1258 33.88 72.5498 32.456 71.3978 31.336C70.2778 30.184 68.8538 29.608 67.1258 29.608C65.3978 29.608 63.9578 30.168 62.8058 31.288C61.6858 32.408 61.1258 33.848 61.1258 35.608C61.1258 37.368 61.6858 38.84 62.8058 40.024C63.9578 41.176 65.3978 41.752 67.1258 41.752C68.8538 41.752 70.2778 41.176 71.3978 40.024C72.5498 38.84 73.1258 37.368 73.1258 35.608ZM90.8696 20.152C89.4616 20.152 88.2936 19.688 87.3656 18.76C86.4376 17.832 85.9736 16.664 85.9736 15.256C85.9736 13.88 86.4376 12.744 87.3656 11.848C88.3256 10.92 89.4936 10.456 90.8696 10.456C92.2456 10.456 93.3976 10.92 94.3256 11.848C95.2536 12.744 95.7176 13.88 95.7176 15.256C95.7176 16.664 95.2536 17.832 94.3256 18.76C93.3976 19.688 92.2456 20.152 90.8696 20.152ZM95.1416 22.504V49H86.6456V22.504H95.1416ZM118.618 40.744L120.874 47.512C118.41 48.952 115.594 49.672 112.426 49.672C105.866 49.672 102.586 46.024 102.586 38.728V29.512H98.5538V22.504H102.682V13.096H111.082V22.504H119.386V29.512H111.082V37.72C111.082 40.536 112.202 41.944 114.442 41.944C115.722 41.944 117.114 41.544 118.618 40.744ZM142.928 24.904V22.504H150.896V49H142.928V46.696C140.752 48.68 138.144 49.672 135.104 49.672C131.36 49.672 128.256 48.328 125.792 45.64C123.36 42.984 122.144 39.656 122.144 35.656C122.144 31.624 123.36 28.328 125.792 25.768C128.224 23.144 131.328 21.832 135.104 21.832C138.176 21.832 140.784 22.856 142.928 24.904ZM142.832 35.704C142.832 34.008 142.24 32.568 141.056 31.384C139.84 30.168 138.384 29.56 136.688 29.56C134.928 29.56 133.472 30.168 132.32 31.384C131.168 32.568 130.592 34.008 130.592 35.704C130.592 37.464 131.168 38.936 132.32 40.12C133.536 41.336 134.992 41.944 136.688 41.944C138.384 41.944 139.84 41.336 141.056 40.12C142.24 38.936 142.832 37.464 142.832 35.704ZM164.699 12.376V49H156.251V12.376H164.699ZM186.307 20.152C184.899 20.152 183.731 19.688 182.803 18.76C181.875 17.832 181.411 16.664 181.411 15.256C181.411 13.88 181.875 12.744 182.803 11.848C183.763 10.92 184.931 10.456 186.307 10.456C187.683 10.456 188.835 10.92 189.763 11.848C190.691 12.744 191.155 13.88 191.155 15.256C191.155 16.664 190.691 17.832 189.763 18.76C188.835 19.688 187.683 20.152 186.307 20.152ZM190.579 22.504V49H182.083V22.504H190.579ZM204.167 49H195.719V22.504H203.975V26.2C204.647 24.92 205.735 23.864 207.239 23.032C208.743 22.2 210.423 21.784 212.279 21.784C215.127 21.784 217.543 22.728 219.527 24.616C221.511 26.504 222.503 29.208 222.503 32.728V49H214.007V34.984C214.007 33.256 213.591 31.912 212.759 30.952C211.927 29.992 210.791 29.512 209.351 29.512C207.815 29.512 206.567 30.04 205.607 31.096C204.647 32.12 204.167 33.496 204.167 35.224V49ZM242.435 18.184C241.091 18.184 240.035 18.536 239.267 19.24C238.499 19.912 238.115 20.872 238.115 22.12V22.504H246.227V29.512H238.115V49H229.667V29.512H225.923V22.504H229.667V21.928C229.667 18.28 230.723 15.528 232.835 13.672C234.979 11.784 237.715 10.84 241.043 10.84C243.859 10.84 246.787 11.608 249.827 13.144L246.995 19.48C245.203 18.616 243.683 18.184 242.435 18.184ZM257.839 49H249.391V22.504H257.503V25.768C259.199 23.112 261.551 21.784 264.559 21.784C265.711 21.784 266.815 22.024 267.871 22.504L267.199 30.568C265.983 30.152 264.815 29.944 263.695 29.944C259.791 29.944 257.839 32.488 257.839 37.576V49ZM289.741 24.904V22.504H297.709V49H289.741V46.696C287.565 48.68 284.957 49.672 281.917 49.672C278.173 49.672 275.069 48.328 272.605 45.64C270.173 42.984 268.957 39.656 268.957 35.656C268.957 31.624 270.173 28.328 272.605 25.768C275.037 23.144 278.141 21.832 281.917 21.832C284.989 21.832 287.597 22.856 289.741 24.904ZM289.645 35.704C289.645 34.008 289.053 32.568 287.869 31.384C286.653 30.168 285.197 29.56 283.501 29.56C281.741 29.56 280.285 30.168 279.133 31.384C277.981 32.568 277.405 34.008 277.405 35.704C277.405 37.464 277.981 38.936 279.133 40.12C280.349 41.336 281.805 41.944 283.501 41.944C285.197 41.944 286.653 41.336 287.869 40.12C289.053 38.936 289.645 37.464 289.645 35.704ZM312.999 49.72C308.391 49.72 304.471 48.2 301.239 45.16L305.031 39.448C307.559 41.656 310.199 42.76 312.951 42.76C314.839 42.76 315.783 42.2 315.783 41.08C315.783 40.472 315.303 39.976 314.343 39.592C314.311 39.592 314.247 39.576 314.151 39.544C314.055 39.512 313.927 39.48 313.767 39.448C313.607 39.384 313.415 39.32 313.191 39.256C312.967 39.16 312.695 39.064 312.375 38.968C312.087 38.872 311.767 38.76 311.415 38.632C309.367 37.896 308.151 37.448 307.767 37.288C304.471 35.752 302.823 33.352 302.823 30.088C302.823 27.592 303.815 25.576 305.799 24.04C307.751 22.472 310.407 21.688 313.767 21.688C317.511 21.688 320.807 22.84 323.655 25.144L320.007 30.712C317.767 29.208 315.639 28.456 313.623 28.456C312.951 28.456 312.375 28.6 311.895 28.888C311.447 29.176 311.223 29.528 311.223 29.944C311.223 30.776 312.023 31.416 313.623 31.864C316.247 32.6 318.327 33.368 319.863 34.168C322.871 35.64 324.375 37.88 324.375 40.888C324.375 43.48 323.351 45.608 321.303 47.272C319.255 48.904 316.487 49.72 312.999 49.72ZM346.243 40.744L348.499 47.512C346.035 48.952 343.219 49.672 340.051 49.672C333.491 49.672 330.211 46.024 330.211 38.728V29.512H326.179V22.504H330.307V13.096H338.707V22.504H347.011V29.512H338.707V37.72C338.707 40.536 339.827 41.944 342.067 41.944C343.347 41.944 344.739 41.544 346.243 40.744ZM359.792 49H351.344V22.504H359.456V25.768C361.152 23.112 363.504 21.784 366.512 21.784C367.664 21.784 368.768 22.024 369.824 22.504L369.152 30.568C367.936 30.152 366.768 29.944 365.648 29.944C361.744 29.944 359.792 32.488 359.792 37.576V49ZM372.43 37.432V22.504H380.926V37.528C380.926 38.84 381.31 39.912 382.078 40.744C382.846 41.544 383.87 41.944 385.15 41.944C386.462 41.944 387.502 41.544 388.27 40.744C389.038 39.944 389.422 38.872 389.422 37.528V22.504H397.918V37.432C397.918 41.304 396.782 44.312 394.51 46.456C392.27 48.6 389.15 49.672 385.15 49.672C381.15 49.672 378.03 48.6 375.79 46.456C373.55 44.312 372.43 41.304 372.43 37.432ZM415.818 49.576C411.658 49.576 408.266 48.28 405.642 45.688C403.05 43.096 401.754 39.768 401.754 35.704C401.754 31.64 403.066 28.312 405.69 25.72C408.346 23.128 411.77 21.832 415.962 21.832C418.778 21.832 421.306 22.504 423.546 23.848C425.786 25.192 427.466 27.096 428.586 29.56L421.818 33.112C420.474 30.84 418.586 29.704 416.154 29.704C414.394 29.704 412.938 30.28 411.786 31.432C410.666 32.616 410.106 34.04 410.106 35.704C410.106 37.464 410.666 38.92 411.786 40.072C412.938 41.224 414.362 41.8 416.058 41.8C417.274 41.8 418.394 41.496 419.418 40.888C420.474 40.248 421.242 39.416 421.722 38.392L428.49 42.424C427.338 44.632 425.626 46.376 423.354 47.656C421.114 48.936 418.602 49.576 415.818 49.576ZM450.446 40.744L452.702 47.512C450.238 48.952 447.422 49.672 444.254 49.672C437.694 49.672 434.414 46.024 434.414 38.728V29.512H430.382V22.504H434.51V13.096H442.91V22.504H451.214V29.512H442.91V37.72C442.91 40.536 444.03 41.944 446.27 41.944C447.55 41.944 448.942 41.544 450.446 40.744ZM455.211 37.432V22.504H463.707V37.528C463.707 38.84 464.091 39.912 464.859 40.744C465.627 41.544 466.651 41.944 467.931 41.944C469.243 41.944 470.283 41.544 471.051 40.744C471.819 39.944 472.203 38.872 472.203 37.528V22.504H480.699V37.432C480.699 41.304 479.563 44.312 477.291 46.456C475.051 48.6 471.931 49.672 467.931 49.672C463.931 49.672 460.811 48.6 458.571 46.456C456.331 44.312 455.211 41.304 455.211 37.432ZM494.183 49H485.735V22.504H493.847V25.768C495.543 23.112 497.895 21.784 500.903 21.784C502.055 21.784 503.159 22.024 504.215 22.504L503.543 30.568C502.327 30.152 501.159 29.944 500.039 29.944C496.135 29.944 494.183 32.488 494.183 37.576V49ZM533.045 35.08C533.045 36.168 532.949 37.304 532.757 38.488H513.845C514.805 41.272 516.965 42.664 520.325 42.664C523.205 42.664 525.877 41.848 528.341 40.216L531.653 45.928C528.261 48.36 524.357 49.576 519.941 49.576C515.269 49.576 511.653 48.248 509.093 45.592C506.565 42.936 505.301 39.656 505.301 35.752C505.301 31.752 506.613 28.44 509.237 25.816C511.893 23.16 515.301 21.832 519.461 21.832C523.397 21.832 526.645 23.016 529.205 25.384C531.765 27.752 533.045 30.984 533.045 35.08ZM519.461 28.6C516.549 28.6 514.645 29.96 513.749 32.68H524.981C524.629 31.4 523.973 30.408 523.013 29.704C522.053 28.968 520.869 28.6 519.461 28.6ZM17.904 90.184C16.56 90.184 15.504 90.536 14.736 91.24C13.968 91.912 13.584 92.872 13.584 94.12V94.504H21.696V101.512H13.584V121H5.136V101.512H1.392V94.504H5.136V93.928C5.136 90.28 6.192 87.528 8.304 85.672C10.448 83.784 13.184 82.84 16.512 82.84C19.328 82.84 22.256 83.608 25.296 85.144L22.464 91.48C20.672 90.616 19.152 90.184 17.904 90.184ZM37.215 121.72C32.959 121.72 29.487 120.376 26.799 117.688C24.143 114.968 22.815 111.656 22.815 107.752C22.815 103.848 24.143 100.536 26.799 97.816C29.487 95.096 32.959 93.736 37.215 93.736C41.535 93.736 45.007 95.096 47.631 97.816C50.319 100.504 51.663 103.816 51.663 107.752C51.663 111.688 50.319 115 47.631 117.688C44.975 120.376 41.503 121.72 37.215 121.72ZM37.215 113.8C38.911 113.8 40.335 113.224 41.487 112.072C42.639 110.856 43.215 109.4 43.215 107.704C43.215 106.008 42.623 104.584 41.439 103.432C40.287 102.28 38.879 101.704 37.215 101.704C35.551 101.704 34.143 102.296 32.991 103.48C31.839 104.632 31.263 106.04 31.263 107.704C31.263 109.4 31.839 110.856 32.991 112.072C34.143 113.224 35.551 113.8 37.215 113.8ZM64.2454 121H55.7974V94.504H63.9094V97.768C65.6054 95.112 67.9574 93.784 70.9654 93.784C72.1174 93.784 73.2214 94.024 74.2774 94.504L73.6054 102.568C72.3894 102.152 71.2214 101.944 70.1014 101.944C66.1974 101.944 64.2454 104.488 64.2454 109.576V121Z" fill="#303030"/>
<path d="M96.3079 121H87.8599V84.376H96.1159V98.104C96.7879 96.888 97.8759 95.864 99.3799 95.032C100.884 94.2 102.564 93.784 104.42 93.784C107.268 93.784 109.684 94.728 111.668 96.616C113.652 98.504 114.644 101.208 114.644 104.728V121H106.148V106.984C106.148 105.256 105.732 103.912 104.9 102.952C104.068 101.992 102.932 101.512 101.492 101.512C99.9559 101.512 98.7079 102.04 97.7479 103.096C96.7879 104.12 96.3079 105.48 96.3079 107.176V121ZM146.232 107.08C146.232 108.168 146.136 109.304 145.944 110.488H127.032C127.992 113.272 130.152 114.664 133.512 114.664C136.392 114.664 139.064 113.848 141.528 112.216L144.84 117.928C141.448 120.36 137.544 121.576 133.128 121.576C128.456 121.576 124.84 120.248 122.28 117.592C119.752 114.936 118.488 111.656 118.488 107.752C118.488 103.752 119.8 100.44 122.424 97.816C125.08 95.16 128.488 93.832 132.648 93.832C136.584 93.832 139.832 95.016 142.392 97.384C144.952 99.752 146.232 102.984 146.232 107.08ZM132.648 100.6C129.736 100.6 127.832 101.96 126.936 104.68H138.168C137.816 103.4 137.16 102.408 136.2 101.704C135.24 100.968 134.056 100.6 132.648 100.6ZM169.881 96.904V94.504H177.849V121H169.881V118.696C167.705 120.68 165.097 121.672 162.057 121.672C158.313 121.672 155.209 120.328 152.745 117.64C150.313 114.984 149.097 111.656 149.097 107.656C149.097 103.624 150.313 100.328 152.745 97.768C155.177 95.144 158.281 93.832 162.057 93.832C165.129 93.832 167.737 94.856 169.881 96.904ZM169.785 107.704C169.785 106.008 169.193 104.568 168.009 103.384C166.793 102.168 165.337 101.56 163.641 101.56C161.881 101.56 160.425 102.168 159.273 103.384C158.121 104.568 157.545 106.008 157.545 107.704C157.545 109.464 158.121 110.936 159.273 112.12C160.489 113.336 161.945 113.944 163.641 113.944C165.337 113.944 166.793 113.336 168.009 112.12C169.193 110.936 169.785 109.464 169.785 107.704ZM191.652 84.376V121H183.204V84.376H191.652ZM215.321 112.744L217.577 119.512C215.113 120.952 212.297 121.672 209.129 121.672C202.569 121.672 199.289 118.024 199.289 110.728V101.512H195.257V94.504H199.385V85.096H207.785V94.504H216.089V101.512H207.785V109.72C207.785 112.536 208.905 113.944 211.145 113.944C212.425 113.944 213.817 113.544 215.321 112.744ZM228.87 121H220.422V84.376H228.678V98.104C229.35 96.888 230.438 95.864 231.942 95.032C233.446 94.2 235.126 93.784 236.982 93.784C239.83 93.784 242.246 94.728 244.23 96.616C246.214 98.504 247.206 101.208 247.206 104.728V121H238.71V106.984C238.71 105.256 238.294 103.912 237.462 102.952C236.63 101.992 235.494 101.512 234.054 101.512C232.518 101.512 231.27 102.04 230.31 103.096C229.35 104.12 228.87 105.48 228.87 107.176V121ZM265.115 121.576C260.955 121.576 257.563 120.28 254.939 117.688C252.347 115.096 251.051 111.768 251.051 107.704C251.051 103.64 252.363 100.312 254.987 97.72C257.643 95.128 261.067 93.832 265.259 93.832C268.075 93.832 270.603 94.504 272.843 95.848C275.083 97.192 276.763 99.096 277.883 101.56L271.115 105.112C269.771 102.84 267.883 101.704 265.451 101.704C263.691 101.704 262.235 102.28 261.083 103.432C259.963 104.616 259.403 106.04 259.403 107.704C259.403 109.464 259.963 110.92 261.083 112.072C262.235 113.224 263.659 113.8 265.355 113.8C266.571 113.8 267.691 113.496 268.715 112.888C269.771 112.248 270.539 111.416 271.019 110.392L277.786 114.424C276.635 116.632 274.923 118.376 272.651 119.656C270.411 120.936 267.899 121.576 265.115 121.576ZM300.85 96.904V94.504H308.818V121H300.85V118.696C298.674 120.68 296.066 121.672 293.026 121.672C289.282 121.672 286.178 120.328 283.714 117.64C281.282 114.984 280.066 111.656 280.066 107.656C280.066 103.624 281.282 100.328 283.714 97.768C286.146 95.144 289.25 93.832 293.026 93.832C296.098 93.832 298.706 94.856 300.85 96.904ZM300.754 107.704C300.754 106.008 300.162 104.568 298.978 103.384C297.762 102.168 296.306 101.56 294.61 101.56C292.85 101.56 291.394 102.168 290.242 103.384C289.09 104.568 288.514 106.008 288.514 107.704C288.514 109.464 289.09 110.936 290.242 112.12C291.458 113.336 292.914 113.944 294.61 113.944C296.306 113.944 297.762 113.336 298.978 112.12C300.162 110.936 300.754 109.464 300.754 107.704ZM322.62 121H314.172V94.504H322.284V97.768C323.98 95.112 326.332 93.784 329.34 93.784C330.492 93.784 331.596 94.024 332.652 94.504L331.98 102.568C330.764 102.152 329.596 101.944 328.476 101.944C324.572 101.944 322.62 104.488 322.62 109.576V121ZM361.482 107.08C361.482 108.168 361.386 109.304 361.194 110.488H342.282C343.242 113.272 345.402 114.664 348.762 114.664C351.642 114.664 354.314 113.848 356.778 112.216L360.09 117.928C356.698 120.36 352.794 121.576 348.378 121.576C343.706 121.576 340.09 120.248 337.53 117.592C335.002 114.936 333.738 111.656 333.738 107.752C333.738 103.752 335.05 100.44 337.674 97.816C340.33 95.16 343.738 93.832 347.898 93.832C351.834 93.832 355.082 95.016 357.642 97.384C360.202 99.752 361.482 102.984 361.482 107.08ZM347.898 100.6C344.986 100.6 343.082 101.96 342.186 104.68H353.418C353.066 103.4 352.41 102.408 351.45 101.704C350.49 100.968 349.306 100.6 347.898 100.6Z" fill="#1B76BA"/>
<path d="M538.5 32.1944H570C575.523 32.1944 580 36.6716 580 42.1944V86.5833C580 92.1062 575.523 96.5833 570 96.5833H366.699" stroke="#00A69C" stroke-dasharray="10 10"/>
</svg>
